HIERARCHY
ROOT pelvis
{
  OFFSET 0 100 0
  CHANNELS 6 Xposition Yposition Zposition Zrotation Xrotation Yrotation
  JOINT pelvis_right_femur
  {
    OFFSET -10.78128 -3.44521 -0.5502486
    CHANNELS 3 Zrotation Xrotation Yrotation
    JOINT right_femur_tibia
    {
      OFFSET -0.8047443 -44.0398 -0.1307829
      CHANNELS 3 Zrotation Xrotation Yrotation
      JOINT right_tibia_foot
      {
        OFFSET 3.006224 -47.83518 -5
        CHANNELS 3 Zrotation Xrotation Yrotation
        End Site
        {
          OFFSET 0 -5 15
        }
      }
    }
  }
  JOINT pelvis_left_femur
  {
    OFFSET 10.78128 -3.44521 -0.5502486
    CHANNELS 3 Zrotation Xrotation Yrotation
    JOINT left_femur_tibia
    {
      OFFSET 0.8047443 -44.0398 -0.1307829
      CHANNELS 3 Zrotation Xrotation Yrotation
      JOINT left_tibia_foot
      {
        OFFSET -4.370144 -48.10324 -4.275266
        CHANNELS 3 Zrotation Xrotation Yrotation
        End Site
        {
          OFFSET 0 -5 15
        }
      }
    }
  }
  JOINT pelvis_spine1
  {
    OFFSET 0 6.468898 -3.129235
    CHANNELS 3 Zrotation Xrotation Yrotation
    JOINT spine1
    {
      OFFSET 0 23.15396 4.99043
      CHANNELS 3 Zrotation Xrotation Yrotation
      JOINT spine2
      {
        OFFSET 0 20.79997 -5.064912
        CHANNELS 3 Zrotation Xrotation Yrotation
        JOINT neck
        {
          OFFSET 0 14.38658 9.616178
          CHANNELS 3 Zrotation Xrotation Yrotation
          End Site
          {
            OFFSET 0 20 0
          }
        }
      }
      JOINT right_manubrium
      {
        OFFSET -5.722621 16.35077 3.967754
        CHANNELS 3 Zrotation Xrotation Yrotation
        JOINT right_clavicle
        {
          OFFSET -13.16364 1.694482 -4.693211
          CHANNELS 3 Zrotation Xrotation Yrotation
          JOINT right_humerus
          {
            OFFSET -28.5034 -0.3100689 -2.792744
            CHANNELS 3 Zrotation Xrotation Yrotation
            JOINT right_radius
            {
              OFFSET -25.15693 0.02248979 -1.271978
              CHANNELS 3 Zrotation Xrotation Yrotation
              End Site
              {
                OFFSET -15 0 0
              }
            }
          }
        }
      }
      JOINT left_manubrium
      {
        OFFSET 5.722621 16.35077 3.967754
        CHANNELS 3 Zrotation Xrotation Yrotation
        JOINT left_clavicle
        {
          OFFSET 13.16364 1.694482 -4.693211
          CHANNELS 3 Zrotation Xrotation Yrotation
          JOINT left_humerus
          {
            OFFSET 29.39168 -1.063119 -2.237045
            CHANNELS 3 Zrotation Xrotation Yrotation
            JOINT left_radius
            {
              OFFSET 24.59957 -0.9528479 0.9047498
              CHANNELS 3 Zrotation Xrotation Yrotation
              End Site
              {
                OFFSET 15 -0 -0
              }
            }
          }
        }
      }
    }
  }
}
MOTION
Frames: 11
Frame Time: 0.0416666666667
0 103.5113 0 2.464228 -0.3706413 0.04500618 3.106372 -14.04799 11.38753 -0 36.67079 -0 -4.476016 -18.19368 -4.125281 -8.491285 9.172671 -21.23017 -0 5.915175 -0 21.97521 -9.720934 29.16515 -2.232423 -2.203003 6.180094 1.777916 10.69736 -6.352612 1.825434 21.77191 5.662251 3.119334 -24.20078 8.687568 5.207618 -20.17041 10.62749 86.16082 38.57012 -17.39152 -0 0 14.21937 -8.259756 8.913908 5.266365 5.762832 -20.51895 -3.144547 -90.34865 22.3956 19.86614 0 0 -19.79985 15.23844 11.92862 -1.178607
0.400999 103.5005 1.539194 1.77454 0.6762374 0.01399627 4.357071 -17.08081 12.19096 -0 37.46316 -0 -4.82963 -17.33888 -4.146987 -8.201061 9.014268 -20.98855 -0 6.358061 -0 22.05813 -10.60416 29.42401 -2.222389 -2.312975 6.269698 1.725196 10.65199 -6.248233 1.890699 21.7673 5.698674 3.10067 -24.30257 8.881163 5.135996 -20.40394 10.55269 86.22523 39.16414 -17.25974 -0 0 14.29942 -8.089564 8.971093 5.251301 5.753808 -20.37063 -3.130514 -90.17609 22.30506 19.93438 0 0 -20.08564 15.98999 11.67796 -1.666701
0.6753187 103.3894 3.296717 1.120692 0.6193416 0.03168918 4.867938 -19.37654 10.20973 -0 35.99582 -0 -5.798093 -15.4908 -3.39272 -7.663705 10.01504 -20.9724 -0 6.832574 -0 18.20427 -13.58164 28.52638 -2.154461 -2.084114 6.335652 1.662531 10.50158 -6.148515 1.870022 21.74302 5.702202 3.083025 -24.32496 8.774688 4.982986 -20.41824 10.59399 85.75041 38.98445 -16.49851 -0 0 14.44381 -8.677005 9.121413 5.892972 5.580175 -20.14427 -2.925735 -90.16332 22.69228 20.10999 0 0 -20.06896 15.06896 11.59245 -0.5779377
0.8685642 103.2381 5.283906 0.4160962 0.919164 0.04300177 5.671886 -22.28087 9.210462 -0 34.69411 -0 -6.536795 -13.67064 -2.926265 -7.117543 10.66002 -20.69231 -0 7.444 -0 15.58046 -15.88591 27.64681 -2.119682 -1.997588 6.302017 1.696606 10.47169 -6.213051 1.840935 21.74189 5.687351 3.062853 -24.32879 8.694574 5.016921 -20.27053 10.63633 85.69049 38.61035 -16.58123 -0 0 14.35354 -8.766291 9.153339 5.97465 5.535181 -20.1844 -2.86485 -90.35489 23.06649 20.21187 0 0 -19.97767 14.31153 11.82359 0.1866746
1.0067 102.9932 7.572878 -0.1952438 1.0607 0.06403986 6.296591 -25.08899 7.948001 -0 32.53145 -0 -7.307853 -11.61618 -2.363048 -6.568772 11.35919 -20.17025 -0 8.27914 -0 13.16972 -17.91775 26.4151 -2.078567 -1.864388 6.243894 1.743913 10.41874 -6.291495 1.796305 21.74047 5.672125 3.040034 -24.31687 8.571389 5.06269 -20.06353 10.70442 85.56765 38.11915 -16.62655 -0 0 14.22927 -8.958116 9.208257 6.149514 5.45252 -20.20814 -2.787387 -90.57664 23.54742 20.33062 0 0 -19.84051 13.24207 12.08877 1.262294
1.113428 102.6596 10.22093 -0.7348443 1.287769 0.1147625 6.852182 -27.87991 6.840235 -0 29.91393 -0 -7.984436 -9.477596 -1.815176 -6.063397 12.00981 -19.48597 -0 9.327488 -0 11.10789 -19.57773 24.96731 -2.051906 -1.753746 6.159457 1.807003 10.3733 -6.382675 1.750902 21.74163 5.66189 3.021389 -24.29983 8.457886 5.131457 -19.84442 10.77463 85.48867 37.66313 -16.74533 -0 0 14.07452 -9.105325 9.248609 6.276259 5.378093 -20.23902 -2.739917 -90.77365 23.96471 20.40555 0 0 -19.69705 12.26463 12.3374 2.217443
1.205027 102.2467 13.29364 -1.166482 1.539909 0.2239052 7.250665 -30.3336 5.747382 -0 26.93216 -0 -8.611427 -7.293339 -1.230379 -5.62575 12.63935 -18.65331 -0 10.73732 -0 9.279524 -20.75064 23.25573 -2.02977 -1.631732 6.076133 1.862737 10.31381 -6.453074 1.70427 21.74285 5.659382 3.007767 -24.26949 8.340797 5.186284 -19.64249 10.84788 85.36965 37.26893 -16.77258 -0 0 13.93192 -9.323301 9.306669 6.47238 5.28247 -20.23128 -2.69665 -90.91371 24.3412 20.4637 0 0 -19.56959 11.31033 12.50959 3.166149
1.291072 101.7986 16.8531 -1.523424 1.827146 0.4211144 7.539666 -32.25252 4.752129 -0 23.94785 -0 -9.202861 -5.148876 -0.6456567 -5.232897 13.22002 -17.71767 -0 12.70011 -0 7.456233 -21.33967 21.23174 -2.014276 -1.507613 6.002497 1.90629 10.25338 -6.500478 1.658837 21.74534 5.661518 3.000769 -24.22113 8.223433 5.225103 -19.46956 10.91872 85.2288 36.95087 -16.72297 -0 0 13.8099 -9.591316 9.374349 6.709511 5.177802 -20.19871 -2.666531 -90.99079 24.64133 20.4959 0 0 -19.46531 10.4543 12.59954 4.024587
1.375693 101.3889 20.94993 -1.850658 2.087103 0.7173971 7.783912 -33.35757 3.903274 -0 21.33583 -0 -9.795461 -3.174188 -0.1092229 -4.835957 13.68319 -16.68974 -0 15.50859 -0 5.431639 -21.16148 18.84875 -2.002151 -1.376198 5.946956 1.932339 10.19354 -6.521637 1.614376 21.74939 5.666415 2.999899 -24.14913 8.100933 5.244064 -19.32803 10.9871 85.05728 36.69957 -16.58278 -0 0 13.715 -9.925901 9.458024 6.997512 5.062401 -20.14318 -2.645691 -91.01105 24.8775 20.51336 0 0 -19.38521 9.673484 12.60985 4.823659
1.460557 101.1215 25.60779 -2.207854 2.248212 1.088528 8.08829 -33.39409 3.297 -0 19.42828 -0 -10.39388 -1.574675 0.2838006 -4.369477 13.87751 -15.57042 -0 19.5019 -0 3.066295 -20.00853 16.12907 -1.992888 -1.240772 5.912077 1.940423 10.13937 -6.519448 1.571216 21.75456 5.672283 3.004777 -24.05255 7.973127 5.245295 -19.2171 11.05217 84.86096 36.50223 -16.36628 -0 0 13.65063 -10.31922 9.555715 7.322513 4.94226 -20.07372 -2.633073 -90.98594 25.05001 20.52092 0 0 -19.32165 8.969914 12.55316 5.556925
1.547647 101.1163 30.80232 -2.624967 2.225671 1.457794 8.515622 -32.13372 2.991798 -0 18.36181 -0 -10.95804 -0.6192077 0.4175735 -3.792124 13.54726 -14.35248 -0 25.00525 -0 0.4197719 -17.71278 13.24813 -1.985513 -1.102574 5.898708 1.930905 10.09212 -6.496672 1.529193 21.76012 5.678552 3.014683 -23.93159 7.839607 5.230975 -19.13415 11.11425 84.64018 36.34438 -16.08201 -0 0 13.61951 -10.77031 9.668353 7.679029 4.819959 -19.99473 -2.625082 -90.9283 25.16828 20.52719 0 0 -19.26518 8.327378 12.44219 6.239761
